<svg xmlns="http://www.w3.org/2000/svg" xmlns:xlink="http://www.w3.org/1999/xlink" viewBox="0 0 82 47.431" fill="#fff" fill-rule="evenodd" stroke="#000" stroke-linecap="round" stroke-linejoin="round"><use xlink:href="#A" x=".5" y=".931"/><symbol id="A" overflow="visible"><g stroke="none" fill-rule="nonzero"><path d="M.155 29.803c.094-.063.22-.094.4-.094H2.35c.22 0 .378.03.44.094.094.063.126.2.126.4V41.32c0 .63.157 1.07.472 1.323s.724.378 1.26.378h4.188c.2 0 .378 0 .504.126.126.094.094.157.157.4.094.252.252 1.512.252 1.512 0 .126 0 .22-.094.315s-.252.157-.378.2-.4.063-.787.063H4.207c-.82 0-1.512-.126-2.047-.346-.535-.252-.976-.567-1.3-.976a3.53 3.53 0 0 1-.66-1.386 6.6 6.6 0 0 1-.2-1.606v-11.12c0-.22.03-.346.126-.4z" fill="#000"/><path d="M60.08 44.32c0 .346-.126.598-.4.724a5.06 5.06 0 0 1-1.039.378l-1.165.252-1.197.126a13.91 13.91 0 0 1-1.102.03c-.976 0-1.795-.094-2.425-.315-.63-.2-1.134-.472-1.512-.787a2.84 2.84 0 0 1-.787-1.165c-.157-.44-.22-.945-.22-1.45s.094-1.008.252-1.512a3 3 0 0 1 .82-1.26c.378-.378.882-.66 1.48-.882s1.354-.346 2.236-.346h2.488v-.378c0-.283-.03-.535-.094-.787a1.25 1.25 0 0 0-.346-.63c-.157-.2-.4-.315-.693-.4a4.17 4.17 0 0 0-1.134-.157 5.65 5.65 0 0 0-1.543.252c-.157.03-.283.063-.346.03s-.126-.126-.157-.252l-.315-1.26c-.063-.252 0-.378.2-.472.63-.252 1.92-.44 2.582-.44 1.543 0 2.645.346 3.37 1.04s1.07 1.67 1.07 2.992zm-2.614-4.22h-2.1l-.82.03c-.283.03-.567.126-.82.252s-.472.315-.63.567-.252.598-.252 1.04c0 .63.22 1.07.63 1.323.44.252 1.008.378 1.7.378h.44c.2 0 .378-.03.598-.063l.66-.126a2.09 2.09 0 0 0 .63-.189V40.1z" fill="#d32d27"/><path d="M30.196 42.084c0 .598-.094 1.102-.315 1.543s-.504.82-.913 1.102c-.378.283-.85.504-1.386.66s-1.102.22-1.732.252c-.346 0-.724 0-1.134-.03s-.787-.063-1.197-.157a6.97 6.97 0 0 1-1.165-.283c-.378-.126-.724-.252-1.04-.44-.22-.126-.283-.283-.157-.535l.504-1.228a.6.6 0 0 1 .22-.252c.063-.032.2-.03.346.063.535.252 1.134.4 1.763.535.66.126 1.228.2 1.732.2.63 0 1.07-.126 1.386-.378s.44-.567.44-.945c0-.4-.22-.756-.63-1.008s-1.008-.504-1.795-.787l-1.606-.63c-.44-.22-.82-.44-1.134-.724a2.61 2.61 0 0 1-.693-.882 2.76 2.76 0 0 1-.252-1.165c0-.472.063-.913.252-1.323.157-.4.44-.756.787-1.04s.787-.535 1.3-.724 1.102-.283 1.795-.283c.622-.005 1.243.037 1.858.126.63.094 1.228.252 1.795.472.126.063.2.126.22.22a.56.56 0 0 1 0 .315l-.472 1.26c-.03.126-.094.2-.157.2-.063.03-.157 0-.283-.03-.567-.2-1.07-.315-1.512-.378-.378-.063-.85-.094-1.354-.094-.535 0-.945.126-1.197.346s-.378.472-.378.756c0 .2.03.378.126.535a1.29 1.29 0 0 0 .41.41 4.57 4.57 0 0 0 .693.378l1.07.41 1.386.535c.44.2.85.4 1.197.693a3.56 3.56 0 0 1 .85.976c.252.346.378.82.378 1.354m8.253 3.24a6.39 6.39 0 0 1-1.512.283l-1.165.03c-1.197 0-2.078-.252-2.55-.787-.504-.535-.756-1.323-.756-2.393l.063-6.33H30.9c-.157 0-.22-.03-.283-.094s-.094-.126-.063-.252l.44-1.165c.03-.03.126-.283.157-.315.03-.063.094-.094.283-.094h1.102v-2.14c0-.283.126-.346.2-.4s.2-.126.346-.2l1.574-.44c.126-.03.22-.03.283.03a.42.42 0 0 1 .126.315v2.834H37.3c.157 0 .252.03.283.094s.063.157.063.252v1.228a.63.63 0 0 1-.063.283c-.03.063-.126.094-.283.094h-2.236v5.983c0 .472.126.787.346.976s.567.252 1.008.252h.346c.157 0 .283-.03.44-.03s.315-.03.472-.063.283-.03.378-.063c.157-.03.252-.03.283 0s.063.094.094.22l.252 1.417c0 .094.03.157 0 .22a.33.33 0 0 1-.22.252z" fill="#000"/><path d="M43.547 45.328c0 .22-.03.346-.094.4s-.346.094-.567.094h-1.45c-.157 0-.315-.03-.4-.094s-.126-.2-.126-.4V31.346a3.61 3.61 0 0 1 .063-.63c.03-.22.03-.283.157-.4.126-.157.315-.252.535-.283.126-.03.22 0 .4 0h4.44a5.87 5.87 0 0 1 2.14.378c.63.252 1.197.598 1.67 1.04s.82.976 1.07 1.606.378 1.3.378 2.047c0 .4-.063.945-.2 1.512-.126.598-.4 1.165-.787 1.7-.4.535-.945 1.008-1.67 1.386s-1.67.567-2.834.567h-2.677v5.07zm5.668-10.958c-.094-.315-.22-.598-.44-.85a2.79 2.79 0 0 0-.882-.66c-.378-.157-.85-.252-1.417-.252h-2.77v5.227h2.834c.976 0 1.7-.252 2.14-.724s.66-1.102.66-1.858c.03-.283-.03-.567-.126-.882zm20.657 9.416c-.22.44-.504.82-.913 1.102-.378.283-.85.504-1.386.66s-1.102.22-1.732.252c-.346 0-.724 0-1.134-.03s-.787-.063-1.197-.157c-.396-.06-.786-.155-1.165-.283s-.724-.252-1.04-.44c-.22-.126-.283-.283-.157-.535l.504-1.228a.6.6 0 0 1 .22-.252c.063-.032.2-.03.346.063.535.252 1.134.4 1.763.535.66.126 1.228.2 1.732.2.63 0 1.07-.126 1.386-.378s.44-.567.44-.945c0-.4-.22-.756-.63-1.008s-1.008-.504-1.795-.787l-1.606-.64c-.44-.22-.82-.44-1.134-.724a2.61 2.61 0 0 1-.693-.882c-.157-.346-.252-.724-.252-1.165 0-.472.063-.913.252-1.323s.44-.756.787-1.04.787-.535 1.3-.724 1.102-.283 1.795-.283a12.3 12.3 0 0 1 1.858.126c.63.094 1.228.252 1.795.472.126.063.2.126.22.22a.56.56 0 0 1 0 .315l-.472 1.26c-.03.126-.094.2-.157.2-.063.03-.157 0-.283-.03-.567-.2-1.07-.315-1.512-.378-.47-.065-.943-.096-1.417-.094-.535 0-.945.126-1.197.346s-.378.472-.378.756c0 .2.03.378.126.535a1.29 1.29 0 0 0 .41.41 4.56 4.56 0 0 0 .693.378l1.07.41 1.386.535c.44.2.85.4 1.197.693a3.56 3.56 0 0 1 .85.976c.22.378.346.82.346 1.386.094.535 0 1.04-.22 1.512zm10.203-1.544c0 .598-.094 1.102-.315 1.543s-.504.82-.913 1.102c-.378.283-.85.504-1.386.66s-1.102.22-1.732.252c-.346 0-.724 0-1.134-.03s-.787-.063-1.197-.157c-.396-.06-.785-.155-1.165-.283s-.724-.252-1.04-.44c-.22-.126-.283-.283-.157-.535l.504-1.228a.6.6 0 0 1 .22-.252c.063-.032.2-.03.346.063.535.252 1.134.4 1.763.535.66.126 1.228.2 1.732.2.63 0 1.07-.126 1.386-.378s.44-.567.44-.945c0-.4-.22-.756-.63-1.008s-1.008-.504-1.795-.787l-1.606-.63c-.44-.22-.82-.44-1.134-.724a2.61 2.61 0 0 1-.693-.882c-.157-.346-.252-.724-.252-1.165 0-.472.063-.913.252-1.323.157-.4.44-.756.787-1.04s.787-.535 1.3-.724 1.102-.283 1.795-.283a12.29 12.29 0 0 1 1.858.126c.63.094 1.228.252 1.795.472.126.063.2.126.22.22a.56.56 0 0 1 0 .315l-.472 1.26c-.03.126-.094.2-.157.2-.063.03-.157 0-.283-.03-.567-.2-1.07-.315-1.512-.378-.47-.065-.943-.096-1.417-.094-.535 0-.945.126-1.197.346s-.378.472-.378.756c0 .2.03.378.126.535a1.29 1.29 0 0 0 .41.41 4.56 4.56 0 0 0 .693.378l1.07.41 1.386.535c.44.2.85.4 1.197.693a3.56 3.56 0 0 1 .85.976c.346.346.44.82.44 1.354" fill="#d32d27"/><path d="M20.12 44.163c0 .346-.126.598-.4.724a5.06 5.06 0 0 1-1.039.378l-1.165.252-1.197.126c-.378.03-.756.03-1.102.03-.976 0-1.795-.094-2.425-.315-.63-.2-1.134-.472-1.512-.787-.378-.346-.63-.724-.787-1.197-.157-.44-.22-.945-.22-1.45 0-.535.094-1.008.252-1.512a3 3 0 0 1 .82-1.26c.378-.378.882-.66 1.48-.882s1.354-.346 2.236-.346h2.488v-.378c0-.283-.03-.535-.094-.787s-.2-.44-.346-.63-.4-.315-.693-.4a4.17 4.17 0 0 0-1.134-.157 10.14 10.14 0 0 0-1.637.126c-.597.096-1.07.2-1.45.315-.157.03-.283.063-.346.03s-.126-.126-.157-.252l-.315-1.26c-.063-.252 0-.378.2-.472.63-.252 1.3-.4 2.047-.504.724-.094 1.417-.157 2.078-.157 1.543 0 2.645.346 3.37 1.04s1.07 1.67 1.07 2.992zm-2.614-4.188h-2.1l-.82.03c-.283.03-.567.126-.82.252s-.472.315-.63.567-.252.598-.252 1.04c0 .63.22 1.07.63 1.323.44.252 1.008.378 1.7.378h.44c.2 0 .378-.03.598-.063l.66-.126a2.09 2.09 0 0 0 .63-.189v-3.2z" fill="#000"/><g fill="#d32d27"><path d="M62.387 1.35A1.35 1.35 0 0 1 63.736 0a1.35 1.35 0 0 1 1.349 1.349v21.58a1.35 1.35 0 0 1-1.349 1.349 1.35 1.35 0 0 1-1.349-1.349z"/><use xlink:href="#C"/><use xlink:href="#C" x="15.246"/><use xlink:href="#C" x="30.493"/></g></g></symbol><defs ><path id="C" d="M15.02 12.66c0-2.534 2.04-4.574 4.574-4.574s4.574 2.04 4.574 4.574-2.04 4.574-4.574 4.574-4.574-2.04-4.574-4.574z"/></defs></svg>