<svg
      data-testid="werkspotLogo"
      width="302"
      height="58"
      xmlns="http://www.w3.org/2000/svg"
      viewBox="0 0 302 58"
      preserveAspectRatio="xMinYMid"
    >
      <title>Werkspot</title>
      <g fillRule="nonzero" fill="none">
        <g fill="#0C85AB">
          <path d="M100.655 46.821h8.335c.259-.014.567-.096.718-.629l9.072-35.783h-.001c.173-.683-.29-.683-.573-.683h-7.783v.004c-.27 0-.677-.019-.842.59l-5.287 24.943-6.749-24.849h-.003c-.148-.707-.582-.684-.865-.684l-.001-.004h-6.881l-.001.004c-.259 0-.641-.017-.819.511l-6.59 25.022-5.33-24.908c-.158-.644-.575-.625-.849-.625l-.002-.004h-7.838c-.282 0-.745 0-.573.683l9.058 35.73h.005c.144.581.466.668.733.682h8.33c.278 0 .662-.003.857-.659l6.538-23.089 6.508 23.168c.201.578.565.58.833.58zM144.573 40.553c.336-.516.068-.696-.203-.793l-5.617-1.579c-.252-.055-.56-.038-.864.36-.028.041-.055.077-.083.12l-.004.003c-.693.953-1.714 1.979-3.169 2.481a7.646 7.646 0 0 1-2.628.473c-3.258 0-5.516-1.995-6.149-5.2-.157-.736-.104-1.366-.104-1.629h18.936c.258 0 .66 0 .644-.744-.064-2.055-.342-6.81-3.029-10.5-3.416-4.782-8.879-4.99-10.718-4.99-5.99 0-8.879 2.468-10.562 4.358-3.414 3.943-3.52 9.04-3.52 10.72 0 6.2 2.837 11.558 8.932 13.449 2.156.683 4.099.737 4.937.737 2.052 0 7.304-.368 11.35-4.835.535-.627 1.036-1.253 1.854-2.43l-.003-.001zm-18.137-12.909c.421-.945 1.89-3.31 5.096-3.31.473 0 1.366 0 2.47.525 2.731 1.209 2.889 3.993 2.993 4.885h-11.19c.21-1.05.42-1.63.631-2.1zM164.53 25.756v-6.238c0-.232-.178-.388-.45-.391-.988.103-2.38.287-4.28 1.056-1.785.736-2.52 1.47-3.203 2.049v-2.32c-.035-.26-.3-.513-.57-.518h-6.573c-.345 0-.687.346-.687.678v26.07c0 .333.342.679.687.679h6.665c.345 0 .688-.346.688-.679V31.373c0-2.049.367-3.413 2.521-4.151.998-.366 2.258-.523 2.524-.577l2.142-.338c.334-.042.535-.245.535-.551zM238.487 18.763c-3.362 0-5.515 1.263-6.513 2.103-.575.42-.737.682-1.156 1.207l-.041-2.136c-.03-.292-.294-.538-.573-.543h-5.95c-.342 0-.68.341-.687.67v33.864c.02.312.334.625.656.643h6.861c.34-.01.674-.349.674-.678h.007v-8.859c2.364 1.47 3.835 2.309 6.723 2.309 2.575 0 4.203-.577 5.097-.996.893-.42 2.784-1.627 4.307-3.939 1-1.578 2.47-4.677 2.52-9.353 0-3.837-.891-7.882-3.675-10.823-2.995-3.207-6.674-3.469-8.25-3.469zm4.152 14.187c0 2.941-.683 4.57-1.313 5.727-.471.84-1.577 2.836-4.361 2.836-1.262 0-2.207-.474-2.575-.735-.631-.369-1.155-.894-1.577-1.469-1.523-2.262-1.414-5.57-1.414-6.148 0-5.939 2.782-8.67 5.776-8.67.21 0 .632 0 1.156.158.947.263 1.786.84 2.415 1.575 1.997 2.365 1.893 5.937 1.893 6.726zM277.826 21.548c-2.577-2.048-5.41-2.785-8.619-2.94-6.935-.422-10.717 2.415-12.609 4.674-3.102 3.731-3.205 8.196-3.205 9.773 0 5.726 2.312 9.09 3.941 10.667 3.783 3.676 9.352 3.937 10.771 3.937 5.148 0 8.354-1.89 9.93-3.201 1.89-1.578 4.832-5.149 4.832-11.351 0-4.413-1.627-8.774-5.04-11.559zM268.212 41.2c-3.05 0-4.627-1.739-5.256-2.679-.527-.843-1.418-2.839-1.418-5.519 0-4.044 1.733-6.411 3.204-7.249 1.155-.686 2.677-.789 3.046-.789 2.155 0 3.26.526 3.994 1.052 1.577 1.103 2.89 3.202 2.89 7.357.001 4.094-1.998 7.827-6.46 7.827zM194.411 46.142h.001l-9.66-16.733 9.064-9.359c.264-.292.089-.636-.174-.656h-8.267c-.28 0-.683.03-1.286.683h-.003l-8.475 8.721V10.321a.75.75 0 0 0-.619-.595h-6.68c-.325.035-.632.358-.632.673h-.003V46.17c.019.323.351.651.684.651h6.509c.344 0 .686-.346.686-.679V38.31l3.471-3.313 6.548 11.182c.223.321.631.642 1.101.642h7.462c.287 0 .53-.248.273-.679zM300.648 46.14v-5.398c-.005-.278-.163-.367-.422-.38-.807.01-1.613.047-2.418.047-.157 0-1.419 0-1.893-.893-.259-.471-.206-1.103-.206-2.205V25.017h4.68c.33-.005.653-.326.676-.645V20.72c-.023-.32-.352-.644-.684-.644h-4.672V12.13c-.002-.312-.304-.63-.625-.667h-6.741c-.316.037-.609.342-.623.648v7.916h-3.358c-.326.031-.635.357-.635.673v3.581c0 .333.343.68.688.68v.003h3.304V38.15c0 2.524-.104 5.308 1.997 7.147 1.84 1.682 4.257 1.627 4.994 1.682.523.05 1.102.05 1.679.05 1.431 0 2.891-.19 3.718-.325.31-.05.541-.257.541-.565zM212.312 29.693l-3.624-.789c-.896-.209-2.89-.472-3.679-.996-.419-.316-.733-.789-.733-1.317 0-.47.262-1.155 1.259-1.627.366-.157 1.419-.472 2.572-.472 1.736 0 3.942.789 5.415 1.681.335.2.647.423.951.654h.002c.269.207.762.145 1.022-.073l3.953-3.66c.243-.229.274-.642.03-.846a34.631 34.631 0 0 0-1.755-1.118c-4.151-2.366-8.198-2.628-9.932-2.628-6.095 0-9.193 2.836-10.453 5.098-.999 1.734-1.156 3.361-1.156 4.097 0 .632.104 1.944.84 3.414 1.418 2.733 4.045 4.045 9.77 4.991 2.945.473 5.36.683 5.415 2.576 0 1.522-1.63 2.206-2.837 2.468-.897.21-1.63.264-1.998.264-2.26 0-4.729-1.051-6.516-2.47a8.288 8.288 0 0 1-1.004-.855l-.002.001c-.275-.235-.754-.213-1.003.025l-4.133 3.714c-.244.228-.241.652-.001.863.607.559 1.542 1.377 2.781 2.136 3.993 2.47 8.563 2.733 10.036 2.733 4.15 0 9.194-1.418 11.61-5.044.473-.683 1.314-2.312 1.314-4.572 0-5.096-3.784-7.304-8.144-8.248z" />
        </g>
        <circle fill="#0C85AB" cx="29.346" cy="28.653" r="28.5" />
        <g strokeWidth=".5">
          <path
            d="M29.32 28.172l18.539 5.344c.13-.598.155-1.219.043-1.719l-2.948-13.182c-.227-1.018-1.179-2.229-2.115-2.69L31.021 10.09c-.468-.231-1.084-.347-1.7-.347v18.43z"
            stroke='#FAFBFC'
            fill='#FAFBFC'
          />
          <path
            d="M29.32 28.172V9.743c-.616 0-1.233.116-1.7.347l-11.802 5.833c-.936.462-1.886 1.674-2.111 2.693l-2.918 13.18c-.111.5-.085 1.12.047 1.719l18.484-5.343z"
            stroke='#E9E9E9'
            fill='#E9E9E9'
          />
          <path
            d="M29.32 28.173l-18.485 5.343c.136.616.384 1.211.709 1.629l8.211 10.546c.641.823 2.02 1.496 3.063 1.496h3.828l-1.977-9.536h9.356l-1.97 9.536h3.852c1.043 0 2.42-.674 3.06-1.498l8.186-10.543c.325-.418.571-1.012.706-1.629L29.32 28.173z"
            stroke='#D0D4D6'
            fill='#D0D4D6'
          />
        </g>
      </g>
    </svg>
